<svg width="1047" height="284" viewBox="0 0 1047 284" fill="none" xmlns="http://www.w3.org/2000/svg">
<rect y="40" width="189" height="189" rx="20" fill="#030303"/>
<path d="M222 1L228.821 283.538" stroke="black"/>
<path d="M36.4545 170V100.182H60.8636C65.7273 100.182 69.7386 101.023 72.8977 102.705C76.0568 104.364 78.4091 106.602 79.9545 109.42C81.5 112.216 82.2727 115.318 82.2727 118.727C82.2727 121.727 81.7386 124.205 80.6705 126.159C79.625 128.114 78.2386 129.659 76.5114 130.795C74.8068 131.932 72.9545 132.773 70.9545 133.318V134C73.0909 134.136 75.2386 134.886 77.3977 136.25C79.5568 137.614 81.3636 139.568 82.8182 142.114C84.2727 144.659 85 147.773 85 151.455C85 154.955 84.2045 158.102 82.6136 160.898C81.0227 163.693 78.5114 165.909 75.0795 167.545C71.6477 169.182 67.1818 170 61.6818 170H36.4545ZM44.9091 162.5H61.6818C67.2045 162.5 71.125 161.432 73.4432 159.295C75.7841 157.136 76.9545 154.523 76.9545 151.455C76.9545 149.091 76.3523 146.909 75.1477 144.909C73.9432 142.886 72.2273 141.273 70 140.068C67.7727 138.841 65.1364 138.227 62.0909 138.227H44.9091V162.5ZM44.9091 130.864H60.5909C63.1364 130.864 65.4318 130.364 67.4773 129.364C69.5455 128.364 71.1818 126.955 72.3864 125.136C73.6136 123.318 74.2273 121.182 74.2273 118.727C74.2273 115.659 73.1591 113.057 71.0227 110.92C68.8864 108.761 65.5 107.682 60.8636 107.682H44.9091V130.864ZM151.119 100.182V170H142.665V107.682H107.483V170H99.0284V100.182H151.119Z" fill="white"/>
<path d="M299.455 170V100.182H323.864C328.727 100.182 332.739 101.023 335.898 102.705C339.057 104.364 341.409 106.602 342.955 109.42C344.5 112.216 345.273 115.318 345.273 118.727C345.273 121.727 344.739 124.205 343.67 126.159C342.625 128.114 341.239 129.659 339.511 130.795C337.807 131.932 335.955 132.773 333.955 133.318V134C336.091 134.136 338.239 134.886 340.398 136.25C342.557 137.614 344.364 139.568 345.818 142.114C347.273 144.659 348 147.773 348 151.455C348 154.955 347.205 158.102 345.614 160.898C344.023 163.693 341.511 165.909 338.08 167.545C334.648 169.182 330.182 170 324.682 170H299.455ZM307.909 162.5H324.682C330.205 162.5 334.125 161.432 336.443 159.295C338.784 157.136 339.955 154.523 339.955 151.455C339.955 149.091 339.352 146.909 338.148 144.909C336.943 142.886 335.227 141.273 333 140.068C330.773 138.841 328.136 138.227 325.091 138.227H307.909V162.5ZM307.909 130.864H323.591C326.136 130.864 328.432 130.364 330.477 129.364C332.545 128.364 334.182 126.955 335.386 125.136C336.614 123.318 337.227 121.182 337.227 118.727C337.227 115.659 336.159 113.057 334.023 110.92C331.886 108.761 328.5 107.682 323.864 107.682H307.909V130.864ZM441.119 100.182V170H432.665V107.682H397.483V170H389.028V100.182H441.119ZM472.491 171.227C469.173 171.227 466.162 170.602 463.457 169.352C460.753 168.08 458.605 166.25 457.014 163.864C455.423 161.455 454.628 158.545 454.628 155.136C454.628 152.136 455.219 149.705 456.401 147.841C457.582 145.955 459.162 144.477 461.139 143.409C463.116 142.341 465.298 141.545 467.685 141.023C470.094 140.477 472.514 140.045 474.946 139.727C478.128 139.318 480.707 139.011 482.685 138.807C484.685 138.58 486.139 138.205 487.048 137.682C487.98 137.159 488.446 136.25 488.446 134.955V134.682C488.446 131.318 487.526 128.705 485.685 126.841C483.866 124.977 481.105 124.045 477.401 124.045C473.56 124.045 470.548 124.886 468.366 126.568C466.185 128.25 464.651 130.045 463.764 131.955L456.128 129.227C457.491 126.045 459.31 123.568 461.582 121.795C463.878 120 466.378 118.75 469.082 118.045C471.81 117.318 474.491 116.955 477.128 116.955C478.81 116.955 480.741 117.159 482.923 117.568C485.128 117.955 487.253 118.761 489.298 119.989C491.366 121.216 493.082 123.068 494.446 125.545C495.81 128.023 496.491 131.341 496.491 135.5V170H488.446V162.909H488.037C487.491 164.045 486.582 165.261 485.31 166.557C484.037 167.852 482.344 168.955 480.23 169.864C478.116 170.773 475.537 171.227 472.491 171.227ZM473.719 164C476.901 164 479.582 163.375 481.764 162.125C483.969 160.875 485.628 159.261 486.741 157.284C487.878 155.307 488.446 153.227 488.446 151.045V143.682C488.105 144.091 487.355 144.466 486.196 144.807C485.06 145.125 483.741 145.409 482.241 145.659C480.764 145.886 479.321 146.091 477.912 146.273C476.526 146.432 475.401 146.568 474.537 146.682C472.446 146.955 470.491 147.398 468.673 148.011C466.878 148.602 465.423 149.5 464.31 150.705C463.219 151.886 462.673 153.5 462.673 155.545C462.673 158.341 463.707 160.455 465.776 161.886C467.866 163.295 470.514 164 473.719 164ZM505.585 185V162.5H509.949C511.017 161.386 511.938 160.182 512.71 158.886C513.483 157.591 514.153 156.057 514.722 154.284C515.313 152.489 515.813 150.307 516.222 147.739C516.631 145.148 516.994 142.023 517.312 138.364L519.085 117.636H552.358V162.5H560.403V185H552.358V170H513.631V185H505.585ZM519.085 162.5H544.312V125.136H526.585L525.222 138.364C524.653 143.841 523.949 148.625 523.108 152.716C522.267 156.807 520.926 160.068 519.085 162.5ZM566.446 170V162.5H568.355C569.923 162.5 571.23 162.193 572.276 161.58C573.321 160.943 574.162 159.841 574.798 158.273C575.457 156.682 575.957 154.477 576.298 151.659C576.662 148.818 576.923 145.205 577.082 140.818L578.037 117.636H612.946V170H604.901V125.136H585.673L584.855 143.818C584.673 148.114 584.287 151.898 583.696 155.17C583.128 158.42 582.253 161.148 581.071 163.352C579.912 165.557 578.366 167.216 576.435 168.33C574.503 169.443 572.082 170 569.173 170H566.446ZM631.014 189.636C629.651 189.636 628.435 189.523 627.366 189.295C626.298 189.091 625.56 188.886 625.151 188.682L627.196 181.591C629.151 182.091 630.878 182.273 632.378 182.136C633.878 182 635.207 181.33 636.366 180.125C637.548 178.943 638.628 177.023 639.605 174.364L641.105 170.273L621.741 117.636H630.469L644.923 159.364H645.469L659.923 117.636H668.651L646.423 177.636C645.423 180.341 644.185 182.58 642.707 184.352C641.23 186.148 639.514 187.477 637.56 188.341C635.628 189.205 633.446 189.636 631.014 189.636Z" fill="black"/>
<path d="M310.776 216H307.32L296.984 204.416V216H294.104V193.152H296.984V204.224L307.064 193.152H310.328L300.408 204.256L310.776 216ZM335.453 207.392C335.453 208.821 335.261 210.091 334.877 211.2C334.515 212.288 333.981 213.216 333.277 213.984C332.595 214.752 331.752 215.339 330.749 215.744C329.768 216.128 328.669 216.32 327.453 216.32C326.323 216.32 325.277 216.128 324.317 215.744C323.357 215.339 322.525 214.752 321.821 213.984C321.117 213.216 320.563 212.288 320.157 211.2C319.773 210.091 319.581 208.821 319.581 207.392C319.581 205.493 319.901 203.893 320.541 202.592C321.181 201.269 322.099 200.267 323.293 199.584C324.488 198.88 325.907 198.528 327.549 198.528C329.107 198.528 330.472 198.88 331.645 199.584C332.84 200.267 333.768 201.269 334.429 202.592C335.112 203.893 335.453 205.493 335.453 207.392ZM322.493 207.392C322.493 208.736 322.664 209.909 323.005 210.912C323.368 211.893 323.923 212.651 324.669 213.184C325.416 213.717 326.365 213.984 327.517 213.984C328.669 213.984 329.619 213.717 330.365 213.184C331.112 212.651 331.656 211.893 331.997 210.912C332.36 209.909 332.541 208.736 332.541 207.392C332.541 206.027 332.36 204.864 331.997 203.904C331.635 202.944 331.08 202.208 330.333 201.696C329.608 201.163 328.659 200.896 327.485 200.896C325.736 200.896 324.467 201.472 323.677 202.624C322.888 203.776 322.493 205.365 322.493 207.392ZM357.42 198.848V201.216H349.772V216H346.956V198.848H357.42ZM379.607 198.848V213.632H382.103V221.952H379.383V216H367.447V221.952H364.759V213.632H366.135C367.117 212.267 367.927 210.784 368.567 209.184C369.229 207.563 369.719 205.877 370.039 204.128C370.381 202.357 370.562 200.597 370.583 198.848H379.607ZM373.079 201.056C372.994 202.507 372.77 204.011 372.407 205.568C372.045 207.104 371.575 208.576 370.999 209.984C370.445 211.392 369.794 212.608 369.047 213.632H376.887V201.056H373.079ZM399.001 198.56C401.092 198.56 402.638 199.019 403.641 199.936C404.644 200.853 405.145 202.315 405.145 204.32V216H403.097L402.553 213.568H402.425C401.934 214.187 401.422 214.709 400.889 215.136C400.377 215.541 399.78 215.84 399.097 216.032C398.436 216.224 397.625 216.32 396.665 216.32C395.641 216.32 394.713 216.139 393.881 215.776C393.07 215.413 392.43 214.859 391.961 214.112C391.492 213.344 391.257 212.384 391.257 211.232C391.257 209.525 391.929 208.213 393.273 207.296C394.617 206.357 396.686 205.845 399.481 205.76L402.393 205.664V204.64C402.393 203.211 402.084 202.219 401.465 201.664C400.846 201.109 399.972 200.832 398.841 200.832C397.945 200.832 397.092 200.971 396.281 201.248C395.47 201.504 394.713 201.803 394.009 202.144L393.145 200.032C393.892 199.627 394.777 199.285 395.801 199.008C396.825 198.709 397.892 198.56 399.001 198.56ZM399.833 207.712C397.7 207.797 396.217 208.139 395.385 208.736C394.574 209.333 394.169 210.176 394.169 211.264C394.169 212.224 394.457 212.928 395.033 213.376C395.63 213.824 396.388 214.048 397.305 214.048C398.756 214.048 399.961 213.653 400.921 212.864C401.881 212.053 402.361 210.816 402.361 209.152V207.616L399.833 207.712ZM442.985 216H440.137V201.184H435.081C434.867 203.893 434.601 206.208 434.281 208.128C433.961 210.027 433.555 211.573 433.065 212.768C432.574 213.963 431.987 214.837 431.305 215.392C430.622 215.947 429.822 216.224 428.905 216.224C428.627 216.224 428.35 216.203 428.073 216.16C427.817 216.139 427.603 216.085 427.433 216V213.888C427.561 213.931 427.699 213.963 427.849 213.984C427.998 214.005 428.147 214.016 428.297 214.016C428.766 214.016 429.193 213.824 429.577 213.44C429.961 213.056 430.302 212.469 430.601 211.68C430.921 210.891 431.209 209.899 431.465 208.704C431.721 207.488 431.945 206.059 432.137 204.416C432.329 202.773 432.499 200.917 432.649 198.848H442.985V216ZM462.093 198.528C463.565 198.528 464.823 198.848 465.869 199.488C466.935 200.128 467.746 201.035 468.301 202.208C468.877 203.36 469.165 204.715 469.165 206.272V207.968H457.421C457.463 209.909 457.954 211.392 458.893 212.416C459.853 213.419 461.186 213.92 462.893 213.92C463.981 213.92 464.941 213.824 465.773 213.632C466.626 213.419 467.501 213.12 468.397 212.736V215.2C467.522 215.584 466.658 215.861 465.805 216.032C464.951 216.224 463.938 216.32 462.765 216.32C461.143 216.32 459.703 215.989 458.445 215.328C457.207 214.667 456.237 213.685 455.533 212.384C454.85 211.061 454.509 209.451 454.509 207.552C454.509 205.675 454.818 204.064 455.437 202.72C456.077 201.376 456.962 200.341 458.093 199.616C459.245 198.891 460.578 198.528 462.093 198.528ZM462.061 200.832C460.717 200.832 459.65 201.269 458.861 202.144C458.093 202.997 457.634 204.192 457.485 205.728H466.221C466.221 204.747 466.071 203.893 465.773 203.168C465.474 202.443 465.015 201.877 464.397 201.472C463.799 201.045 463.021 200.832 462.061 200.832ZM483.387 198.848V205.984H492.699V198.848H495.515V216H492.699V208.352H483.387V216H480.571V198.848H483.387ZM515.89 205.888C517.384 205.888 518.621 206.069 519.602 206.432C520.584 206.795 521.32 207.339 521.81 208.064C522.322 208.768 522.578 209.664 522.578 210.752C522.578 211.819 522.333 212.747 521.842 213.536C521.373 214.325 520.637 214.933 519.634 215.36C518.632 215.787 517.341 216 515.762 216H507.986V198.848H510.802V205.888H515.89ZM519.762 210.912C519.762 209.867 519.389 209.163 518.642 208.8C517.917 208.416 516.893 208.224 515.57 208.224H510.802V213.728H515.634C516.829 213.728 517.81 213.515 518.578 213.088C519.368 212.661 519.762 211.936 519.762 210.912ZM560.969 198.848V216H558.153V201.248H549.289V216H546.473V198.848H560.969ZM581.641 198.528C583.753 198.528 585.449 199.264 586.729 200.736C588.031 202.208 588.681 204.427 588.681 207.392C588.681 209.333 588.383 210.976 587.785 212.32C587.209 213.643 586.388 214.645 585.321 215.328C584.276 215.989 583.039 216.32 581.609 216.32C580.735 216.32 579.956 216.203 579.273 215.968C578.591 215.733 578.004 215.435 577.513 215.072C577.044 214.688 576.639 214.272 576.297 213.824H576.105C576.148 214.187 576.191 214.645 576.233 215.2C576.276 215.755 576.297 216.235 576.297 216.64V223.68H573.481V198.848H575.785L576.169 201.184H576.297C576.639 200.693 577.044 200.245 577.513 199.84C578.004 199.435 578.58 199.115 579.241 198.88C579.924 198.645 580.724 198.528 581.641 198.528ZM581.129 200.896C579.977 200.896 579.049 201.12 578.345 201.568C577.641 201.995 577.129 202.645 576.809 203.52C576.489 204.395 576.319 205.504 576.297 206.848V207.392C576.297 208.8 576.447 209.995 576.745 210.976C577.044 211.957 577.545 212.704 578.249 213.216C578.975 213.728 579.956 213.984 581.193 213.984C582.239 213.984 583.092 213.696 583.753 213.12C584.436 212.544 584.937 211.765 585.257 210.784C585.599 209.781 585.769 208.64 585.769 207.36C585.769 205.397 585.385 203.829 584.617 202.656C583.871 201.483 582.708 200.896 581.129 200.896ZM602.865 209.312C602.865 209.504 602.854 209.781 602.833 210.144C602.833 210.485 602.822 210.859 602.801 211.264C602.779 211.648 602.758 212.021 602.737 212.384C602.715 212.725 602.694 213.003 602.673 213.216L611.857 198.848H615.313V216H612.689V205.888C612.689 205.547 612.689 205.099 612.689 204.544C612.71 203.989 612.731 203.445 612.753 202.912C612.774 202.357 612.795 201.941 612.817 201.664L603.697 216H600.209V198.848H602.865V209.312ZM640.547 198.848V213.632H643.043V221.952H640.323V216H628.387V221.952H625.699V213.632H627.075C628.057 212.267 628.867 210.784 629.507 209.184C630.169 207.563 630.659 205.877 630.979 204.128C631.321 202.357 631.502 200.597 631.523 198.848H640.547ZM634.019 201.056C633.934 202.507 633.71 204.011 633.347 205.568C632.985 207.104 632.515 208.576 631.939 209.984C631.385 211.392 630.734 212.608 629.987 213.632H637.827V201.056H634.019ZM650.757 198.848H653.765L657.477 208.608C657.69 209.184 657.882 209.739 658.053 210.272C658.245 210.805 658.416 211.328 658.565 211.84C658.714 212.331 658.832 212.811 658.917 213.28H659.045C659.173 212.747 659.376 212.053 659.653 211.2C659.93 210.325 660.218 209.451 660.517 208.576L664.005 198.848H667.045L659.653 218.368C659.248 219.435 658.768 220.363 658.213 221.152C657.68 221.963 657.018 222.581 656.229 223.008C655.461 223.456 654.522 223.68 653.413 223.68C652.901 223.68 652.453 223.648 652.069 223.584C651.685 223.541 651.354 223.488 651.077 223.424V221.184C651.312 221.227 651.589 221.269 651.909 221.312C652.25 221.355 652.602 221.376 652.965 221.376C653.626 221.376 654.192 221.248 654.661 220.992C655.152 220.757 655.568 220.405 655.909 219.936C656.25 219.488 656.538 218.955 656.773 218.336L657.669 216.064L650.757 198.848ZM695.198 198.848V216H692.67V205.056C692.67 204.608 692.68 204.139 692.702 203.648C692.744 203.157 692.787 202.677 692.83 202.208H692.734L687.134 216H684.766L679.326 202.208H679.23C679.272 202.677 679.294 203.157 679.294 203.648C679.315 204.139 679.326 204.64 679.326 205.152V216H676.798V198.848H680.542L685.95 212.64L691.454 198.848H695.198ZM707.712 216V198.848H710.528V205.888H714.976C716.47 205.888 717.696 206.069 718.656 206.432C719.616 206.795 720.331 207.339 720.8 208.064C721.27 208.768 721.504 209.664 721.504 210.752C721.504 211.819 721.27 212.747 720.8 213.536C720.352 214.325 719.638 214.933 718.656 215.36C717.696 215.787 716.427 216 714.848 216H707.712ZM714.592 213.728C715.808 213.728 716.8 213.525 717.568 213.12C718.336 212.693 718.72 211.957 718.72 210.912C718.72 209.867 718.368 209.163 717.664 208.8C716.96 208.416 715.947 208.224 714.624 208.224H710.528V213.728H714.592ZM724.352 216V198.848H727.168V216H724.352ZM753.451 203.168C753.451 204.235 753.131 205.067 752.491 205.664C751.851 206.261 751.029 206.667 750.027 206.88V207.008C751.093 207.157 752.021 207.541 752.811 208.16C753.6 208.757 753.995 209.696 753.995 210.976C753.995 211.701 753.856 212.373 753.579 212.992C753.323 213.611 752.917 214.144 752.363 214.592C751.808 215.04 751.093 215.392 750.219 215.648C749.344 215.883 748.288 216 747.051 216H739.659V198.848H747.019C748.235 198.848 749.323 198.987 750.283 199.264C751.264 199.52 752.032 199.968 752.587 200.608C753.163 201.227 753.451 202.08 753.451 203.168ZM751.083 210.976C751.083 209.995 750.709 209.291 749.963 208.864C749.216 208.437 748.117 208.224 746.667 208.224H742.475V213.728H746.731C748.139 213.728 749.216 213.525 749.963 213.12C750.709 212.693 751.083 211.979 751.083 210.976ZM750.603 203.52C750.603 202.709 750.304 202.123 749.707 201.76C749.131 201.376 748.181 201.184 746.859 201.184H742.475V205.888H746.347C747.733 205.888 748.789 205.696 749.515 205.312C750.24 204.928 750.603 204.331 750.603 203.52ZM771.632 198.56C773.723 198.56 775.27 199.019 776.272 199.936C777.275 200.853 777.776 202.315 777.776 204.32V216H775.728L775.184 213.568H775.056C774.566 214.187 774.054 214.709 773.52 215.136C773.008 215.541 772.411 215.84 771.728 216.032C771.067 216.224 770.256 216.32 769.296 216.32C768.272 216.32 767.344 216.139 766.512 215.776C765.702 215.413 765.062 214.859 764.592 214.112C764.123 213.344 763.888 212.384 763.888 211.232C763.888 209.525 764.56 208.213 765.904 207.296C767.248 206.357 769.318 205.845 772.112 205.76L775.024 205.664V204.64C775.024 203.211 774.715 202.219 774.096 201.664C773.478 201.109 772.603 200.832 771.472 200.832C770.576 200.832 769.723 200.971 768.912 201.248C768.102 201.504 767.344 201.803 766.64 202.144L765.776 200.032C766.523 199.627 767.408 199.285 768.432 199.008C769.456 198.709 770.523 198.56 771.632 198.56ZM772.464 207.712C770.331 207.797 768.848 208.139 768.016 208.736C767.206 209.333 766.8 210.176 766.8 211.264C766.8 212.224 767.088 212.928 767.664 213.376C768.262 213.824 769.019 214.048 769.936 214.048C771.387 214.048 772.592 213.653 773.552 212.864C774.512 212.053 774.992 210.816 774.992 209.152V207.616L772.464 207.712ZM801.954 201.216H796.354V216H793.57V201.216H788.034V198.848H801.954V201.216ZM820.277 205.888C821.77 205.888 823.007 206.069 823.989 206.432C824.97 206.795 825.706 207.339 826.197 208.064C826.709 208.768 826.965 209.664 826.965 210.752C826.965 211.819 826.719 212.747 826.229 213.536C825.759 214.325 825.023 214.933 824.021 215.36C823.018 215.787 821.727 216 820.149 216H812.373V198.848H815.189V205.888H820.277ZM824.149 210.912C824.149 209.867 823.775 209.163 823.029 208.8C822.303 208.416 821.279 208.224 819.957 208.224H815.189V213.728H820.021C821.215 213.728 822.197 213.515 822.965 213.088C823.754 212.661 824.149 211.936 824.149 210.912ZM853.675 198.848V205.984H862.987V198.848H865.803V216H862.987V208.352H853.675V216H850.859V198.848H853.675ZM884.77 198.56C886.86 198.56 888.407 199.019 889.41 199.936C890.412 200.853 890.914 202.315 890.914 204.32V216H888.866L888.322 213.568H888.194C887.703 214.187 887.191 214.709 886.658 215.136C886.146 215.541 885.548 215.84 884.866 216.032C884.204 216.224 883.394 216.32 882.434 216.32C881.41 216.32 880.482 216.139 879.65 215.776C878.839 215.413 878.199 214.859 877.73 214.112C877.26 213.344 877.026 212.384 877.026 211.232C877.026 209.525 877.698 208.213 879.042 207.296C880.386 206.357 882.455 205.845 885.25 205.76L888.162 205.664V204.64C888.162 203.211 887.852 202.219 887.234 201.664C886.615 201.109 885.74 200.832 884.61 200.832C883.714 200.832 882.86 200.971 882.05 201.248C881.239 201.504 880.482 201.803 879.778 202.144L878.914 200.032C879.66 199.627 880.546 199.285 881.57 199.008C882.594 198.709 883.66 198.56 884.77 198.56ZM885.602 207.712C883.468 207.797 881.986 208.139 881.154 208.736C880.343 209.333 879.938 210.176 879.938 211.264C879.938 212.224 880.226 212.928 880.802 213.376C881.399 213.824 882.156 214.048 883.074 214.048C884.524 214.048 885.73 213.653 886.69 212.864C887.65 212.053 888.13 210.816 888.13 209.152V207.616L885.602 207.712ZM907.763 198.528C909.065 198.528 910.195 198.709 911.155 199.072C912.115 199.413 912.862 199.925 913.395 200.608C913.929 201.269 914.195 202.08 914.195 203.04C914.195 204.085 913.907 204.917 913.331 205.536C912.755 206.133 911.966 206.571 910.963 206.848V206.976C911.646 207.168 912.275 207.435 912.851 207.776C913.427 208.117 913.886 208.565 914.227 209.12C914.59 209.675 914.771 210.389 914.771 211.264C914.771 212.203 914.505 213.056 913.971 213.824C913.459 214.592 912.659 215.2 911.571 215.648C910.505 216.096 909.129 216.32 907.443 216.32C906.633 216.32 905.854 216.277 905.107 216.192C904.382 216.107 903.721 215.979 903.123 215.808C902.547 215.637 902.035 215.435 901.587 215.2V212.672C902.313 213.013 903.166 213.323 904.147 213.6C905.15 213.877 906.238 214.016 907.411 214.016C908.265 214.016 909.033 213.92 909.715 213.728C910.419 213.536 910.974 213.237 911.379 212.832C911.785 212.405 911.987 211.829 911.987 211.104C911.987 210.443 911.806 209.909 911.443 209.504C911.081 209.077 910.537 208.757 909.811 208.544C909.107 208.331 908.201 208.224 907.091 208.224H904.787V205.92H906.643C908.115 205.92 909.289 205.728 910.163 205.344C911.059 204.939 911.507 204.256 911.507 203.296C911.507 202.485 911.166 201.877 910.483 201.472C909.822 201.067 908.862 200.864 907.603 200.864C906.665 200.864 905.833 200.96 905.107 201.152C904.403 201.323 903.625 201.589 902.771 201.952L901.779 199.712C902.697 199.307 903.657 199.008 904.659 198.816C905.662 198.624 906.697 198.528 907.763 198.528ZM939.771 203.168C939.771 204.235 939.451 205.067 938.811 205.664C938.171 206.261 937.349 206.667 936.347 206.88V207.008C937.413 207.157 938.341 207.541 939.131 208.16C939.92 208.757 940.315 209.696 940.315 210.976C940.315 211.701 940.176 212.373 939.899 212.992C939.643 213.611 939.237 214.144 938.683 214.592C938.128 215.04 937.413 215.392 936.539 215.648C935.664 215.883 934.608 216 933.371 216H925.979V198.848H933.339C934.555 198.848 935.643 198.987 936.603 199.264C937.584 199.52 938.352 199.968 938.907 200.608C939.483 201.227 939.771 202.08 939.771 203.168ZM937.403 210.976C937.403 209.995 937.029 209.291 936.283 208.864C935.536 208.437 934.437 208.224 932.987 208.224H928.795V213.728H933.051C934.459 213.728 935.536 213.525 936.283 213.12C937.029 212.693 937.403 211.979 937.403 210.976ZM936.923 203.52C936.923 202.709 936.624 202.123 936.027 201.76C935.451 201.376 934.501 201.184 933.179 201.184H928.795V205.888H932.667C934.053 205.888 935.109 205.696 935.835 205.312C936.56 204.928 936.923 204.331 936.923 203.52ZM957.952 198.56C960.043 198.56 961.59 199.019 962.592 199.936C963.595 200.853 964.096 202.315 964.096 204.32V216H962.048L961.504 213.568H961.376C960.886 214.187 960.374 214.709 959.84 215.136C959.328 215.541 958.731 215.84 958.048 216.032C957.387 216.224 956.576 216.32 955.616 216.32C954.592 216.32 953.664 216.139 952.832 215.776C952.022 215.413 951.382 214.859 950.912 214.112C950.443 213.344 950.208 212.384 950.208 211.232C950.208 209.525 950.88 208.213 952.224 207.296C953.568 206.357 955.638 205.845 958.432 205.76L961.344 205.664V204.64C961.344 203.211 961.035 202.219 960.416 201.664C959.798 201.109 958.923 200.832 957.792 200.832C956.896 200.832 956.043 200.971 955.232 201.248C954.422 201.504 953.664 201.803 952.96 202.144L952.096 200.032C952.843 199.627 953.728 199.285 954.752 199.008C955.776 198.709 956.843 198.56 957.952 198.56ZM958.784 207.712C956.651 207.797 955.168 208.139 954.336 208.736C953.526 209.333 953.12 210.176 953.12 211.264C953.12 212.224 953.408 212.928 953.984 213.376C954.582 213.824 955.339 214.048 956.256 214.048C957.707 214.048 958.912 213.653 959.872 212.864C960.832 212.053 961.312 210.816 961.312 209.152V207.616L958.784 207.712ZM979.25 198.848V205.984H988.562V198.848H991.378V216H988.562V208.352H979.25V216H976.434V198.848H979.25ZM1006.5 209.312C1006.5 209.504 1006.49 209.781 1006.47 210.144C1006.47 210.485 1006.46 210.859 1006.44 211.264C1006.42 211.648 1006.4 212.021 1006.38 212.384C1006.36 212.725 1006.33 213.003 1006.31 213.216L1015.5 198.848H1018.95V216H1016.33V205.888C1016.33 205.547 1016.33 205.099 1016.33 204.544C1016.35 203.989 1016.37 203.445 1016.39 202.912C1016.41 202.357 1016.44 201.941 1016.46 201.664L1007.34 216H1003.85V198.848H1006.5V209.312ZM1038.08 198.528C1039.55 198.528 1040.81 198.848 1041.85 199.488C1042.92 200.128 1043.73 201.035 1044.28 202.208C1044.86 203.36 1045.15 204.715 1045.15 206.272V207.968H1033.4C1033.45 209.909 1033.94 211.392 1034.88 212.416C1035.84 213.419 1037.17 213.92 1038.88 213.92C1039.96 213.92 1040.92 213.824 1041.76 213.632C1042.61 213.419 1043.48 213.12 1044.38 212.736V215.2C1043.5 215.584 1042.64 215.861 1041.79 216.032C1040.93 216.224 1039.92 216.32 1038.75 216.32C1037.13 216.32 1035.69 215.989 1034.43 215.328C1033.19 214.667 1032.22 213.685 1031.52 212.384C1030.83 211.061 1030.49 209.451 1030.49 207.552C1030.49 205.675 1030.8 204.064 1031.42 202.72C1032.06 201.376 1032.94 200.341 1034.08 199.616C1035.23 198.891 1036.56 198.528 1038.08 198.528ZM1038.04 200.832C1036.7 200.832 1035.63 201.269 1034.84 202.144C1034.08 202.997 1033.62 204.192 1033.47 205.728H1042.2C1042.2 204.747 1042.05 203.893 1041.76 203.168C1041.46 202.443 1041 201.877 1040.38 201.472C1039.78 201.045 1039 200.832 1038.04 200.832Z" fill="black"/>
</svg>
